<?xml version="1.0" standalone="no"?><!DOCTYPE svg PUBLIC "-//W3C//DTD SVG 1.1//EN" "http://www.w3.org/Graphics/SVG/1.1/DTD/svg11.dtd"><svg t="1546670171958" class="icon" style="" viewBox="0 0 1261 1024" version="1.1" xmlns="http://www.w3.org/2000/svg" p-id="1409" xmlns:xlink="http://www.w3.org/1999/xlink" width="246.2890625" height="200"><defs><style type="text/css"></style></defs><path d="M1260.307692 0 1260.307692 1024 0 1024 0 0 1260.307692 0ZM55.138462 59.733307 55.138462 964.266693 1205.169231 964.266693 1205.169231 59.733307 55.138462 59.733307ZM252.062326 389.907929C317.31712 389.907929 370.216172 337.00864 370.216172 271.754082 370.216172 206.499525 317.31712 153.600236 252.062326 153.600236 186.80832 153.600236 133.90848 206.499525 133.90848 271.754082 133.90848 337.00864 186.80832 389.907929 252.062326 389.907929ZM133.90848 870.399764 1118.523865 870.399764 1118.523865 563.199764 837.205071 255.315338 415.922806 645.357962 274.568271 492.311158 133.90848 645.357962 133.90848 870.399764Z" p-id="1410"></path></svg>